<svg xmlns="http://www.w3.org/2000/svg" xmlns:xlink="http://www.w3.org/1999/xlink" width="1500" zoomAndPan="magnify" viewBox="0 0 1125 449.999984" height="600" preserveAspectRatio="xMidYMid meet" version="1.0"><rect x="-112.5" width="1350" fill="#ffffff" y="-44.999998" height="539.99998" fill-opacity="1"/><rect x="-112.5" width="1350" fill="#ffffff" y="-44.999998" height="539.99998" fill-opacity="1"/><rect x="-112.5" width="1350" fill="#ffffff" y="-44.999998" height="539.99998" fill-opacity="1"/><rect x="-112.5" width="1350" fill="#ffffff" y="-44.999998" height="539.99998" fill-opacity="1"/><path fill="#e2e6ff" d="M 481.414062 -93.199219 L 471.328125 -89.785156 L 470.828125 -88.773438 L 25.851562 766.417969 L 696.105469 539.625 L 1141.582031 -316.582031 L 481.414062 -93.199219 " fill-opacity="1" fill-rule="nonzero"/><path fill="#f0f0ff" d="M -10.707031 -115.417969 L -20.792969 -112.007812 L -21.292969 -110.996094 L -466.269531 744.199219 L 203.984375 517.40625 L 649.460938 -338.800781 L -10.707031 -115.417969 " fill-opacity="1" fill-rule="nonzero"/><path fill="#d2dcff" d="M 928.332031 -36.765625 L 918.25 -33.351562 L 917.746094 -32.339844 L 472.769531 822.851562 L 1143.023438 596.058594 L 1588.503906 -260.148438 L 928.332031 -36.765625 " fill-opacity="1" fill-rule="nonzero"/></svg>